<mxfile host="app.diagrams.net" modified="2024-04-26T15:26:17.546Z" agent="Mozilla/5.0 (Windows NT 10.0; Win64; x64) AppleWebKit/537.36 (KHTML, like Gecko) Chrome/124.0.0.0 Safari/537.36" etag="U38kJEioaCofo-2RTz7A" version="24.3.0" type="github" pages="2">
  <diagram name="Page-1" id="4wBwSQqroR4nY2Sn0ccV">
    <mxGraphModel dx="2643" dy="923" grid="1" gridSize="10" guides="1" tooltips="1" connect="1" arrows="1" fold="1" page="1" pageScale="1" pageWidth="850" pageHeight="1100" math="0" shadow="0">
      <root>
        <mxCell id="0" />
        <mxCell id="1" parent="0" />
        <mxCell id="JlfBs8ddfp3pRPKZz6Xe-1" value="" style="edgeStyle=orthogonalEdgeStyle;rounded=0;orthogonalLoop=1;jettySize=auto;html=1;entryX=0.5;entryY=0;entryDx=0;entryDy=0;exitX=0.5;exitY=1;exitDx=0;exitDy=0;" parent="1" source="HnjKMJxRJqAs7B1REKYS-1" edge="1" target="HnjKMJxRJqAs7B1REKYS-3">
          <mxGeometry relative="1" as="geometry">
            <mxPoint x="-430" y="190" as="targetPoint" />
          </mxGeometry>
        </mxCell>
        <object label="Start" id="HnjKMJxRJqAs7B1REKYS-1">
          <mxCell style="ellipse;whiteSpace=wrap;html=1;align=center;" parent="1" vertex="1">
            <mxGeometry x="-500" y="100" width="130" height="60" as="geometry" />
          </mxCell>
        </object>
        <mxCell id="JlfBs8ddfp3pRPKZz6Xe-5" value="" style="edgeStyle=orthogonalEdgeStyle;rounded=0;orthogonalLoop=1;jettySize=auto;html=1;" parent="1" source="HnjKMJxRJqAs7B1REKYS-3" target="JlfBs8ddfp3pRPKZz6Xe-3" edge="1">
          <mxGeometry relative="1" as="geometry" />
        </mxCell>
        <mxCell id="HnjKMJxRJqAs7B1REKYS-3" value="Log in" style="rounded=0;whiteSpace=wrap;html=1;" parent="1" vertex="1">
          <mxGeometry x="-495" y="190" width="120" height="60" as="geometry" />
        </mxCell>
        <mxCell id="HnjKMJxRJqAs7B1REKYS-5" value="" style="endArrow=none;html=1;rounded=0;entryX=0.5;entryY=0;entryDx=0;entryDy=0;exitX=0.5;exitY=0;exitDx=0;exitDy=0;" parent="1" edge="1" target="kQChuPqLE-apyOvLvmhc-18" source="HnjKMJxRJqAs7B1REKYS-11">
          <mxGeometry width="50" height="50" relative="1" as="geometry">
            <mxPoint x="-610" y="370" as="sourcePoint" />
            <mxPoint x="-220" y="400" as="targetPoint" />
            <Array as="points">
              <mxPoint x="-710" y="370" />
              <mxPoint x="-440" y="370" />
              <mxPoint x="-305" y="370" />
            </Array>
          </mxGeometry>
        </mxCell>
        <mxCell id="HnjKMJxRJqAs7B1REKYS-30" value="" style="edgeStyle=orthogonalEdgeStyle;rounded=0;orthogonalLoop=1;jettySize=auto;html=1;entryX=0.5;entryY=0;entryDx=0;entryDy=0;" parent="1" source="HnjKMJxRJqAs7B1REKYS-11" target="HnjKMJxRJqAs7B1REKYS-19" edge="1">
          <mxGeometry relative="1" as="geometry">
            <Array as="points">
              <mxPoint x="-710" y="490" />
              <mxPoint x="-710" y="490" />
            </Array>
            <mxPoint x="-640" y="480" as="targetPoint" />
          </mxGeometry>
        </mxCell>
        <mxCell id="HnjKMJxRJqAs7B1REKYS-11" value="View&lt;br&gt;Client" style="rounded=1;whiteSpace=wrap;html=1;" parent="1" vertex="1">
          <mxGeometry x="-770" y="400" width="120" height="60" as="geometry" />
        </mxCell>
        <mxCell id="HnjKMJxRJqAs7B1REKYS-19" value="Manage&lt;br&gt;Client" style="whiteSpace=wrap;html=1;rounded=1;" parent="1" vertex="1">
          <mxGeometry x="-770" y="510" width="120" height="60" as="geometry" />
        </mxCell>
        <mxCell id="kQChuPqLE-apyOvLvmhc-42" style="edgeStyle=orthogonalEdgeStyle;rounded=0;orthogonalLoop=1;jettySize=auto;html=1;" edge="1" parent="1">
          <mxGeometry relative="1" as="geometry">
            <mxPoint x="-530" y="517" as="targetPoint" />
            <mxPoint x="-530" y="467" as="sourcePoint" />
          </mxGeometry>
        </mxCell>
        <mxCell id="HnjKMJxRJqAs7B1REKYS-26" value="Manage&lt;br&gt;Client&#39;s Request" style="whiteSpace=wrap;html=1;rounded=1;" parent="1" vertex="1">
          <mxGeometry x="-590" y="410" width="120" height="60" as="geometry" />
        </mxCell>
        <mxCell id="HnjKMJxRJqAs7B1REKYS-34" value="Delete Account" style="whiteSpace=wrap;html=1;rounded=1;" parent="1" vertex="1">
          <mxGeometry x="-705" y="650" width="100" height="40" as="geometry" />
        </mxCell>
        <mxCell id="HnjKMJxRJqAs7B1REKYS-39" value="End" style="ellipse;whiteSpace=wrap;html=1;" parent="1" vertex="1">
          <mxGeometry x="-495" y="790" width="120" height="80" as="geometry" />
        </mxCell>
        <mxCell id="kQChuPqLE-apyOvLvmhc-3" style="edgeStyle=orthogonalEdgeStyle;rounded=0;orthogonalLoop=1;jettySize=auto;html=1;entryX=1;entryY=0.5;entryDx=0;entryDy=0;" edge="1" parent="1" target="HnjKMJxRJqAs7B1REKYS-26">
          <mxGeometry relative="1" as="geometry">
            <mxPoint x="-405" y="340" as="sourcePoint" />
            <Array as="points">
              <mxPoint x="-405" y="341" />
              <mxPoint x="-440" y="341" />
              <mxPoint x="-440" y="440" />
            </Array>
          </mxGeometry>
        </mxCell>
        <mxCell id="JlfBs8ddfp3pRPKZz6Xe-3" value="Dashboard" style="rounded=0;whiteSpace=wrap;html=1;" parent="1" vertex="1">
          <mxGeometry x="-510" y="280" width="150" height="60" as="geometry" />
        </mxCell>
        <mxCell id="kQChuPqLE-apyOvLvmhc-8" value="Approved" style="rhombus;whiteSpace=wrap;html=1;" vertex="1" parent="1">
          <mxGeometry x="-610" y="550" width="70" height="40" as="geometry" />
        </mxCell>
        <mxCell id="kQChuPqLE-apyOvLvmhc-9" value="Declined" style="rhombus;whiteSpace=wrap;html=1;" vertex="1" parent="1">
          <mxGeometry x="-520" y="550" width="70" height="40" as="geometry" />
        </mxCell>
        <mxCell id="kQChuPqLE-apyOvLvmhc-14" value="" style="endArrow=classic;html=1;rounded=0;entryX=0.5;entryY=0;entryDx=0;entryDy=0;" edge="1" parent="1" target="HnjKMJxRJqAs7B1REKYS-39">
          <mxGeometry width="50" height="50" relative="1" as="geometry">
            <mxPoint x="-530" y="610" as="sourcePoint" />
            <mxPoint x="-405" y="790" as="targetPoint" />
            <Array as="points">
              <mxPoint x="-530" y="640" />
              <mxPoint x="-530" y="710" />
            </Array>
          </mxGeometry>
        </mxCell>
        <mxCell id="kQChuPqLE-apyOvLvmhc-15" value="" style="endArrow=none;html=1;rounded=0;exitX=0.5;exitY=1;exitDx=0;exitDy=0;entryX=0.5;entryY=1;entryDx=0;entryDy=0;" edge="1" parent="1">
          <mxGeometry width="50" height="50" relative="1" as="geometry">
            <mxPoint x="-575" y="590" as="sourcePoint" />
            <mxPoint x="-485" y="590" as="targetPoint" />
            <Array as="points">
              <mxPoint x="-575" y="610" />
              <mxPoint x="-530" y="610" />
              <mxPoint x="-485" y="610" />
            </Array>
          </mxGeometry>
        </mxCell>
        <mxCell id="kQChuPqLE-apyOvLvmhc-21" value="" style="edgeStyle=orthogonalEdgeStyle;rounded=0;orthogonalLoop=1;jettySize=auto;html=1;entryX=0.5;entryY=0;entryDx=0;entryDy=0;" edge="1" parent="1" source="kQChuPqLE-apyOvLvmhc-18" target="kQChuPqLE-apyOvLvmhc-20">
          <mxGeometry relative="1" as="geometry">
            <mxPoint x="-339" y="460" as="targetPoint" />
            <Array as="points">
              <mxPoint x="-351" y="430" />
              <mxPoint x="-351" y="500" />
            </Array>
          </mxGeometry>
        </mxCell>
        <mxCell id="kQChuPqLE-apyOvLvmhc-26" value="" style="edgeStyle=orthogonalEdgeStyle;rounded=0;orthogonalLoop=1;jettySize=auto;html=1;" edge="1" parent="1" source="kQChuPqLE-apyOvLvmhc-18" target="kQChuPqLE-apyOvLvmhc-25">
          <mxGeometry relative="1" as="geometry" />
        </mxCell>
        <mxCell id="kQChuPqLE-apyOvLvmhc-27" style="edgeStyle=orthogonalEdgeStyle;rounded=0;orthogonalLoop=1;jettySize=auto;html=1;entryX=0.5;entryY=0;entryDx=0;entryDy=0;" edge="1" parent="1" source="kQChuPqLE-apyOvLvmhc-18">
          <mxGeometry relative="1" as="geometry">
            <mxPoint x="-126.5" y="510" as="targetPoint" />
            <Array as="points">
              <mxPoint x="-126" y="430" />
              <mxPoint x="-126" y="485" />
            </Array>
          </mxGeometry>
        </mxCell>
        <mxCell id="kQChuPqLE-apyOvLvmhc-18" value="Drivers" style="rounded=1;whiteSpace=wrap;html=1;" vertex="1" parent="1">
          <mxGeometry x="-299" y="400" width="120" height="60" as="geometry" />
        </mxCell>
        <mxCell id="kQChuPqLE-apyOvLvmhc-20" value="Edit driver info" style="rounded=1;whiteSpace=wrap;html=1;" vertex="1" parent="1">
          <mxGeometry x="-404" y="510" width="105" height="40" as="geometry" />
        </mxCell>
        <mxCell id="kQChuPqLE-apyOvLvmhc-25" value="Add driver" style="rounded=1;whiteSpace=wrap;html=1;" vertex="1" parent="1">
          <mxGeometry x="-289" y="510" width="100" height="40" as="geometry" />
        </mxCell>
        <mxCell id="kQChuPqLE-apyOvLvmhc-30" value="Delete driver info" style="rounded=1;whiteSpace=wrap;html=1;" vertex="1" parent="1">
          <mxGeometry x="-184" y="510" width="105" height="40" as="geometry" />
        </mxCell>
        <mxCell id="kQChuPqLE-apyOvLvmhc-31" value="" style="endArrow=none;html=1;rounded=0;exitX=0.5;exitY=1;exitDx=0;exitDy=0;entryX=0.5;entryY=1;entryDx=0;entryDy=0;" edge="1" parent="1" source="kQChuPqLE-apyOvLvmhc-20">
          <mxGeometry width="50" height="50" relative="1" as="geometry">
            <mxPoint x="-289" y="630" as="sourcePoint" />
            <mxPoint x="-126.5" y="550" as="targetPoint" />
            <Array as="points">
              <mxPoint x="-351" y="590" />
              <mxPoint x="-126" y="590" />
            </Array>
          </mxGeometry>
        </mxCell>
        <mxCell id="kQChuPqLE-apyOvLvmhc-32" value="" style="endArrow=none;html=1;rounded=0;entryX=0.5;entryY=1;entryDx=0;entryDy=0;" edge="1" parent="1">
          <mxGeometry width="50" height="50" relative="1" as="geometry">
            <mxPoint x="-240" y="590" as="sourcePoint" />
            <mxPoint x="-239.9999999999999" y="550" as="targetPoint" />
          </mxGeometry>
        </mxCell>
        <mxCell id="kQChuPqLE-apyOvLvmhc-33" value="" style="endArrow=classic;html=1;rounded=0;entryX=1;entryY=0;entryDx=0;entryDy=0;" edge="1" parent="1" target="HnjKMJxRJqAs7B1REKYS-39">
          <mxGeometry width="50" height="50" relative="1" as="geometry">
            <mxPoint x="-240" y="590" as="sourcePoint" />
            <mxPoint x="-412.72" y="791.6799999999998" as="targetPoint" />
            <Array as="points">
              <mxPoint x="-240" y="650" />
              <mxPoint x="-240" y="680" />
            </Array>
          </mxGeometry>
        </mxCell>
        <mxCell id="kQChuPqLE-apyOvLvmhc-35" value="" style="endArrow=classic;html=1;rounded=0;entryX=0;entryY=0;entryDx=0;entryDy=0;" edge="1" parent="1" target="HnjKMJxRJqAs7B1REKYS-39">
          <mxGeometry width="50" height="50" relative="1" as="geometry">
            <mxPoint x="-710" y="710" as="sourcePoint" />
            <mxPoint x="-270" y="670" as="targetPoint" />
          </mxGeometry>
        </mxCell>
        <mxCell id="kQChuPqLE-apyOvLvmhc-36" value="Edit Account" style="whiteSpace=wrap;html=1;rounded=1;" vertex="1" parent="1">
          <mxGeometry x="-815" y="650" width="100" height="40" as="geometry" />
        </mxCell>
        <mxCell id="kQChuPqLE-apyOvLvmhc-37" value="" style="endArrow=none;html=1;rounded=0;exitX=0.5;exitY=0;exitDx=0;exitDy=0;entryX=0.5;entryY=0;entryDx=0;entryDy=0;" edge="1" parent="1" source="kQChuPqLE-apyOvLvmhc-36" target="HnjKMJxRJqAs7B1REKYS-34">
          <mxGeometry width="50" height="50" relative="1" as="geometry">
            <mxPoint x="-775" y="650" as="sourcePoint" />
            <mxPoint x="-725" y="600" as="targetPoint" />
            <Array as="points">
              <mxPoint x="-765" y="630" />
              <mxPoint x="-655" y="630" />
            </Array>
          </mxGeometry>
        </mxCell>
        <mxCell id="kQChuPqLE-apyOvLvmhc-38" value="" style="endArrow=classic;html=1;rounded=0;exitX=0.5;exitY=1;exitDx=0;exitDy=0;" edge="1" parent="1" source="HnjKMJxRJqAs7B1REKYS-19">
          <mxGeometry width="50" height="50" relative="1" as="geometry">
            <mxPoint x="-320" y="550" as="sourcePoint" />
            <mxPoint x="-710" y="630" as="targetPoint" />
          </mxGeometry>
        </mxCell>
        <mxCell id="kQChuPqLE-apyOvLvmhc-39" value="" style="endArrow=none;html=1;rounded=0;exitX=0.5;exitY=1;exitDx=0;exitDy=0;" edge="1" parent="1" source="kQChuPqLE-apyOvLvmhc-36">
          <mxGeometry width="50" height="50" relative="1" as="geometry">
            <mxPoint x="-320" y="630" as="sourcePoint" />
            <mxPoint x="-650" y="690" as="targetPoint" />
            <Array as="points">
              <mxPoint x="-765" y="710" />
              <mxPoint x="-700" y="710" />
              <mxPoint x="-650" y="710" />
            </Array>
          </mxGeometry>
        </mxCell>
        <mxCell id="kQChuPqLE-apyOvLvmhc-41" value="" style="endArrow=classic;startArrow=classic;html=1;rounded=0;exitX=0.5;exitY=0;exitDx=0;exitDy=0;entryX=0.5;entryY=0;entryDx=0;entryDy=0;" edge="1" parent="1" source="kQChuPqLE-apyOvLvmhc-8" target="kQChuPqLE-apyOvLvmhc-9">
          <mxGeometry width="50" height="50" relative="1" as="geometry">
            <mxPoint x="-420" y="557" as="sourcePoint" />
            <mxPoint x="-520" y="497" as="targetPoint" />
            <Array as="points">
              <mxPoint x="-575" y="517" />
              <mxPoint x="-485" y="517" />
            </Array>
          </mxGeometry>
        </mxCell>
      </root>
    </mxGraphModel>
  </diagram>
  <diagram id="2nMYho5gjZWwcrne3w73" name="Page-2">
    <mxGraphModel dx="1092" dy="508" grid="1" gridSize="10" guides="1" tooltips="1" connect="1" arrows="1" fold="1" page="1" pageScale="1" pageWidth="850" pageHeight="1100" math="0" shadow="0">
      <root>
        <mxCell id="0" />
        <mxCell id="1" parent="0" />
      </root>
    </mxGraphModel>
  </diagram>
</mxfile>
